<?xml version="1.0" standalone="no"?><!DOCTYPE svg PUBLIC "-//W3C//DTD SVG 1.1//EN" "http://www.w3.org/Graphics/SVG/1.1/DTD/svg11.dtd"><svg t="1587817924969" class="icon" viewBox="0 0 1024 1024" version="1.1" xmlns="http://www.w3.org/2000/svg" p-id="1129" width="32" height="32" xmlns:xlink="http://www.w3.org/1999/xlink"><defs><style type="text/css"></style></defs><path d="M30.442868 664.574998a22.52304 22.52304 0 0 0 0 38.943063l540.480312 312.416366 344.239241-199.219924a22.52304 22.52304 0 0 0 0-38.943064l-540.480312-312.416365z" fill="#D4E4FC" p-id="1130"></path><path d="M570.92318 1023.999128a7.846737 7.846737 0 0 1-4.213989-1.162479L26.156225 710.783558a30.951017 30.951017 0 0 1 0-53.546712L370.468121 457.726302a8.863906 8.863906 0 0 1 8.500631 0l540.480312 312.416366a30.951017 30.951017 0 0 1 0 53.546712L575.209823 1022.836649a8.064702 8.064702 0 0 1-4.286643 1.162479zM34.729511 671.91315a14.530994 14.530994 0 0 0-7.265497 12.060725 14.095064 14.095064 0 0 0 7.265497 12.206035l536.193669 309.655476 340.025253-196.749655a13.949754 13.949754 0 0 0 0-24.194105L374.682109 475.09084z" fill="#0276F7" p-id="1131"></path><path d="M470.877288 873.167413a8.645941 8.645941 0 0 1-4.359298-1.089824L270.712849 755.611674a8.573286 8.573286 0 0 1-2.978854-11.69745A8.645941 8.645941 0 0 1 279.5041 741.08068l196.168416 116.24795a8.573286 8.573286 0 0 1 2.978853 11.69745 8.791251 8.791251 0 0 1-7.774081 4.141333z" fill="#0276F7" p-id="1132"></path><path d="M570.92318 984.69279a8.210011 8.210011 0 0 1-4.213989-1.162479L23.467991 673.511559a8.500631 8.500631 0 0 1-3.269474-11.55214 8.645941 8.645941 0 0 1 11.624795-3.269473L570.92318 966.311083l164.781468-92.99836a8.573286 8.573286 0 0 1 11.624795 3.269474 8.355321 8.355321 0 0 1-3.196818 11.55214L575.209823 983.530311a8.282666 8.282666 0 0 1-4.286643 1.162479z" fill="#0276F7" p-id="1133"></path><path d="M957.956198 350.342259l-46.7898 437.891496-544.912265-314.741324 46.717145-437.818841z" fill="#D4E4FC" p-id="1134"></path><path d="M911.166398 796.734386a7.846737 7.846737 0 0 1-4.213988-1.162479l-544.912265-314.741324a8.791251 8.791251 0 0 1-4.504608-8.573287L404.470646 34.80173a8.355321 8.355321 0 0 1 4.577263-6.684257A8.718596 8.718596 0 0 1 417.548541 28.335438l544.912265 314.741324a8.718596 8.718596 0 0 1 4.213988 8.282666l-46.862455 437.746186a8.500631 8.500631 0 0 1-4.577263 6.684258 10.026386 10.026386 0 0 1-4.068678 0.944514zM375.118039 468.915168l528.928172 305.150868 44.828115-419.291824-528.928171-305.150868z" fill="#0276F7" p-id="1135"></path><path d="M957.956198 350.342259l46.862454-27.172958-55.072466 471.821366-46.717145 27.245613z" fill="#D4E4FC" p-id="1136"></path><path d="M903.029041 830.736912a9.372491 9.372491 0 0 1-4.722573-1.380445 8.355321 8.355321 0 0 1-3.778058-8.064701l54.927156-471.821367a8.573286 8.573286 0 0 1 4.141333-6.393637l46.717145-27.245613a8.863906 8.863906 0 0 1 9.009216 0 8.355321 8.355321 0 0 1 3.778059 8.064701l-54.927157 471.821367a8.791251 8.791251 0 0 1-4.141333 6.393637l-46.7898 27.245613a7.846737 7.846737 0 0 1-4.213988 1.380445z m62.919203-475.163495l-52.456887 450.460805 28.335438-16.492678 52.529542-450.460805z" fill="#0276F7" p-id="1137"></path><path d="M412.971278 35.67359l46.717145-27.172959 544.912264 314.66867-46.862454 27.172958z" fill="#FFFFFF" p-id="1138"></path><path d="M957.956198 358.84289a8.064702 8.064702 0 0 1-4.286644-1.162479l-544.912264-314.596015a8.573286 8.573286 0 0 1 0-14.530993L455.474434 1.089825a8.863906 8.863906 0 0 1 8.500632 0l544.912265 314.741324a8.427976 8.427976 0 0 1 4.286643 7.265497 8.573286 8.573286 0 0 1-4.286643 7.265496L962.460806 357.753066a9.445146 9.445146 0 0 1-4.504608 1.089824zM429.97254 35.600935l528.056313 305.150868 29.861192-17.364538L459.688423 18.381707z" fill="#0276F7" p-id="1139"></path><path d="M900.849392 374.681673l-36.327484 339.444014-448.935051-265.69922 36.327484-339.444014z" fill="#FFFFFF" p-id="1140"></path><path d="M649.317891 348.74385l13.804444 32.694735 2.615579 45.699976c15.693473-0.58124 25.138619-7.265497 22.95897-17.945778a39.669613 39.669613 0 0 0-14.530994-20.343391l-1.816374-5.521777-1.089825-3.560094c0-0.87186 0.653895-1.380444 1.380445-1.380444l2.252304 1.380444c21.142596 13.586479 36.763414 31.168982 39.960232 47.22573 4.359298 21.796491-15.911438 34.51111-47.371039 31.168981l1.380444 22.886315-12.206034 0.72655v-7.265497 7.265497L642.778944 472.765881V452.640455c-2.615579-0.87186-5.231158-1.743719-7.846737-2.760889l0.58124 18.236397-10.898246-5.594433-10.898245-15.112233v-7.265497l-1.453099-0.799205c-24.12145-13.949754-42.357847-33.203321-45.91794-50.858478-4.286643-21.796491 24.484724-39.088373 45.48201-30.805706a2.906199 2.906199 0 0 1 1.089824 3.414783c-18.599672-0.58124-34.65642 7.265497-32.040841 20.052772 1.961684 9.881076 13.150549 21.142596 28.553403 30.006502 1.743719 1.01717 3.560093 1.961684 5.376468 2.906198l2.106994-50.858478 7.846736-12.496654 8.500632 21.215251 1.089824 50.858478q3.051509 1.01717 6.103018 1.743719l1.961684 0.508585-0.799205-68.804256z" fill="#78B9EA" p-id="1141"></path></svg>